<svg xmlns="http://www.w3.org/2000/svg" viewBox="0 0 512 512" role="img" aria-labelledby="title desc">
  <title id="title">OpenHRI logo mark</title>
  <desc id="desc">A geometric robot and human-interaction mark for OpenHRI.</desc>
  <defs>
    <linearGradient id="core" x1="96" x2="416" y1="96" y2="416" gradientUnits="userSpaceOnUse">
      <stop offset="0" stop-color="#19c2ff"/>
      <stop offset="0.48" stop-color="#2ed47a"/>
      <stop offset="1" stop-color="#f4b740"/>
    </linearGradient>
  </defs>
  <rect width="512" height="512" rx="96" fill="#0f1720"/>
  <path fill="none" stroke="#233242" stroke-linecap="round" stroke-width="18" d="M126 368c44 34 93 51 146 49 61-2 111-29 150-80M100 150c45-34 95-52 150-52 62 0 115 22 160 67"/>
  <circle cx="115" cy="153" r="24" fill="#19c2ff"/>
  <circle cx="420" cy="337" r="24" fill="#f4b740"/>
  <path fill="url(#core)" d="M164 178c0-27 22-49 49-49h86c27 0 49 22 49 49v39h32c21 0 38 17 38 38v82c0 21-17 38-38 38H132c-21 0-38-17-38-38v-82c0-21 17-38 38-38h32v-39Zm49-13c-7 0-13 6-13 13v39h112v-39c0-7-6-13-13-13h-86Z"/>
  <path fill="#0f1720" d="M146 253h66v86h-34v-29h-32v29h-34v-86h34v29h32v-29Zm105 0h62c22 0 35 11 35 30 0 13-6 23-17 28l22 28h-40l-18-24h-10v24h-34v-86Zm34 27v11h23c4 0 7-2 7-6s-3-5-7-5h-23Zm83-27h34v86h-34v-86Z"/>
  <circle cx="179" cy="127" r="16" fill="#2ed47a"/>
  <circle cx="333" cy="127" r="16" fill="#2ed47a"/>
</svg>
